<svg width="176" height="35" viewBox="0 0 176 35" fill="none" xmlns="http://www.w3.org/2000/svg">
<g clip-path="url(#clip0_11_11)">
<path fill-rule="evenodd" clip-rule="evenodd" d="M22.2664 10.2246C20.8335 9.26319 19.149 8.75 17.4257 8.75V0C20.8722 0 24.2413 1.02636 27.107 2.94928C29.9726 4.8722 32.2061 7.60533 33.525 10.803C34.8439 14.0007 35.189 17.5194 34.5166 20.9141C33.8443 24.3087 32.1847 27.427 29.7476 29.8743C27.3106 32.3218 24.2056 33.9885 20.8253 34.6637C17.4451 35.339 13.9413 34.9924 10.7572 33.6679C7.57305 32.3433 4.85153 30.1004 2.93677 27.2225C1.022 24.3446 0 20.9611 0 17.5H8.71287C8.71287 19.2306 9.22388 20.9223 10.1813 22.3612C11.1386 23.8002 12.4994 24.9217 14.0915 25.584C15.6835 26.2462 17.4354 26.4195 19.1255 26.0818C20.8157 25.7442 22.3681 24.9109 23.5867 23.6872C24.8052 22.4634 25.635 20.9044 25.9712 19.207C26.3074 17.5097 26.1349 15.7504 25.4754 14.1516C24.8159 12.5527 23.6992 11.1861 22.2664 10.2246Z" fill="#007DFC"/>
<path fill-rule="evenodd" clip-rule="evenodd" d="M8.71287 4.62431e-06C8.71287 1.14907 8.48751 2.28689 8.04964 3.34849C7.61178 4.41008 6.97 5.37467 6.16093 6.18719C5.35187 6.99971 4.39137 7.64422 3.33427 8.08395C2.27717 8.52368 1.14419 8.75 3.80848e-07 8.75L0 17.5C2.28838 17.5 4.55435 17.0474 6.66855 16.1679C8.78274 15.2884 10.7038 13.9994 12.3218 12.3743C13.94 10.7494 15.2236 8.82018 16.0993 6.69696C16.975 4.57376 17.4257 2.29813 17.4257 0L8.71287 4.62431e-06Z" fill="#007DFC"/>
<path d="M109.45 12.6459H105.223V26.1317H109.45V12.6459Z" fill="#007DFC"/>
<path d="M105.693 10.1208C106.135 10.5648 106.687 10.7867 107.35 10.7867C108.013 10.7867 108.557 10.5648 108.981 10.1208C109.405 9.65834 109.617 9.10333 109.617 8.45587C109.617 7.78992 109.405 7.23493 108.981 6.79097C108.557 6.34698 108.013 6.125 107.35 6.125C106.687 6.125 106.135 6.34698 105.693 6.79097C105.269 7.23493 105.057 7.78992 105.057 8.45587C105.057 9.10333 105.269 9.65834 105.693 10.1208Z" fill="#007DFC"/>
<path d="M44.5718 26.1317V6.5412H48.9098V22.3024H57.5583V26.1317H44.5718Z" fill="#007DFC"/>
<path fill-rule="evenodd" clip-rule="evenodd" d="M65.3704 26.4369C63.9889 26.4369 62.7363 26.1317 61.6126 25.5212C60.5074 24.8923 59.6324 24.0413 58.9877 22.9683C58.343 21.8954 58.0206 20.693 58.0206 19.361C58.0206 18.0291 58.343 16.8359 58.9877 15.7815C59.6324 14.727 60.5074 13.8946 61.6126 13.2842C62.7178 12.6551 63.9705 12.3406 65.3704 12.3406C66.7704 12.3406 68.0229 12.6459 69.1281 13.2563C70.2334 13.8668 71.1084 14.7086 71.7531 15.7815C72.3978 16.8359 72.7202 18.0291 72.7202 19.361C72.7202 20.693 72.3978 21.8954 71.7531 22.9683C71.1084 24.0413 70.2334 24.8923 69.1281 25.5212C68.0229 26.1317 66.7704 26.4369 65.3704 26.4369ZM65.3704 22.5799C65.9783 22.5799 66.5125 22.4504 66.973 22.1914C67.4335 21.9139 67.7835 21.5347 68.0229 21.0537C68.2808 20.5543 68.4098 19.99 68.4098 19.361C68.4098 18.7321 68.2808 18.1863 68.0229 17.7239C67.765 17.2429 67.4059 16.873 66.9453 16.614C66.5032 16.3364 65.9783 16.1977 65.3704 16.1977C64.7809 16.1977 64.256 16.3364 63.7954 16.614C63.335 16.873 62.9757 17.2429 62.7178 17.7239C62.4599 18.2049 62.3311 18.7598 62.3311 19.3888C62.3311 19.9992 62.4599 20.5543 62.7178 21.0537C62.9757 21.5347 63.335 21.9139 63.7954 22.1914C64.256 22.4504 64.7809 22.5799 65.3704 22.5799Z" fill="#007DFC"/>
<path fill-rule="evenodd" clip-rule="evenodd" d="M76.0684 31.4039C77.192 31.9219 78.4906 32.1809 79.9643 32.1809C81.4011 32.1809 82.6813 31.8941 83.8049 31.3206C84.9286 30.7472 85.8127 29.9518 86.4575 28.9343C87.1022 27.9169 87.425 26.7145 87.425 25.327V12.646H83.2799V13.552C82.9716 13.2914 82.6216 13.0727 82.23 12.8957C81.5115 12.5442 80.6918 12.3684 79.7709 12.3684C78.5367 12.3684 77.4406 12.6644 76.4828 13.2564C75.5248 13.8298 74.7697 14.6253 74.217 15.6427C73.6644 16.6417 73.3882 17.7701 73.3882 19.0281C73.3882 20.2676 73.6644 21.396 74.217 22.4134C74.7697 23.4309 75.5248 24.2356 76.4828 24.8275C77.4406 25.4195 78.5367 25.7155 79.7709 25.7155C80.6735 25.7155 81.4932 25.5398 82.23 25.1883C82.5869 25.018 82.9093 24.8174 83.1971 24.5863V25.438C83.1971 26.3814 82.8931 27.1122 82.2852 27.6302C81.6958 28.1482 80.8761 28.4071 79.8261 28.4071C78.9788 28.4071 78.2512 28.2591 77.6433 27.9631C77.0539 27.6672 76.5196 27.2324 76.0406 26.6589L73.4434 29.2673C74.0881 30.1922 74.9631 30.9045 76.0684 31.4039ZM82.0918 21.5532C81.6681 21.8122 81.1616 21.9417 80.5721 21.9417C79.9827 21.9417 79.4669 21.8122 79.0248 21.5532C78.6011 21.2942 78.2696 20.9427 78.0301 20.4987C77.7906 20.0363 77.6709 19.546 77.6709 19.0281C77.6709 18.4731 77.7906 17.9737 78.0301 17.5297C78.2696 17.0857 78.6103 16.7342 79.0524 16.4752C79.4945 16.2162 80.0011 16.0867 80.5721 16.0867C81.1616 16.0867 81.6681 16.2162 82.0918 16.4752C82.5339 16.7342 82.8654 17.0857 83.0866 17.5297C83.326 17.9737 83.4457 18.4731 83.4457 19.0281C83.4457 19.583 83.326 20.0825 83.0866 20.5265C82.8654 20.952 82.5339 21.2942 82.0918 21.5532Z" fill="#007DFC"/>
<path fill-rule="evenodd" clip-rule="evenodd" d="M96.3216 26.4369C94.9398 26.4369 93.6868 26.1317 92.5638 25.5212C91.4581 24.8923 90.5833 24.0413 89.9386 22.9683C89.2938 21.8954 88.9714 20.693 88.9714 19.361C88.9714 18.0291 89.2938 16.8359 89.9386 15.7815C90.5833 14.727 91.4581 13.8946 92.5638 13.2842C93.6685 12.6551 94.9215 12.3406 96.3216 12.3406C97.7209 12.3406 98.9738 12.6459 100.079 13.2563C101.184 13.8668 102.059 14.7086 102.704 15.7815C103.349 16.8359 103.671 18.0291 103.671 19.361C103.671 20.693 103.349 21.8954 102.704 22.9683C102.059 24.0413 101.184 24.8923 100.079 25.5212C98.9738 26.1317 97.7209 26.4369 96.3216 26.4369ZM96.3216 22.5799C96.9289 22.5799 97.463 22.4504 97.9239 22.1914C98.384 21.9139 98.7342 21.5347 98.9738 21.0537C99.2317 20.5543 99.3607 19.99 99.3607 19.361C99.3607 18.7321 99.2317 18.1863 98.9738 17.7239C98.7159 17.2429 98.3569 16.873 97.896 16.614C97.4543 16.3364 96.9289 16.1977 96.3216 16.1977C95.7318 16.1977 95.2064 16.3364 94.7463 16.614C94.2854 16.873 93.9264 17.2429 93.6685 17.7239C93.4106 18.2049 93.2817 18.7598 93.2817 19.3888C93.2817 19.9992 93.4106 20.5543 93.6685 21.0537C93.9264 21.5347 94.2854 21.9139 94.7463 22.1914C95.2064 22.4504 95.7318 22.5799 96.3216 22.5799Z" fill="#007DFC"/>
<path fill-rule="evenodd" clip-rule="evenodd" d="M119.611 26.4092C118.709 26.4092 117.88 26.2335 117.125 25.882C116.727 25.697 116.368 25.4762 116.048 25.2194V31.8202H111.875V12.646H116.102V13.5767C116.409 13.3248 116.75 13.107 117.125 12.9234C117.88 12.5534 118.709 12.3684 119.611 12.3684C120.882 12.3684 122.006 12.6737 122.982 13.2842C123.977 13.8946 124.751 14.7271 125.303 15.7815C125.875 16.836 126.16 18.0384 126.16 19.3888C126.16 20.7393 125.875 21.9417 125.303 22.9962C124.751 24.0506 123.977 24.883 122.982 25.4935C122.006 26.104 120.882 26.4092 119.611 26.4092ZM118.838 22.5799C119.446 22.5799 119.971 22.4411 120.413 22.1637C120.874 21.8862 121.233 21.5069 121.491 21.026C121.748 20.545 121.877 19.9993 121.877 19.3888C121.877 18.7598 121.748 18.2049 121.491 17.7239C121.233 17.2429 120.874 16.873 120.413 16.614C119.971 16.3364 119.455 16.1978 118.865 16.1978C118.276 16.1978 117.751 16.3364 117.291 16.614C116.848 16.873 116.499 17.2429 116.241 17.7239C115.983 18.2049 115.854 18.7598 115.854 19.3888C115.854 19.9993 115.974 20.545 116.213 21.026C116.471 21.5069 116.83 21.8862 117.291 22.1637C117.751 22.4411 118.267 22.5799 118.838 22.5799Z" fill="#007DFC"/>
<path d="M130.297 26.1594C131.071 26.363 131.854 26.4646 132.646 26.4646C134.322 26.4646 135.648 26.0762 136.625 25.2992C137.619 24.5223 138.116 23.4771 138.116 22.1637C138.116 21.3127 137.96 20.6282 137.647 20.1103C137.334 19.5738 136.929 19.1483 136.431 18.8339C135.934 18.5194 135.408 18.2696 134.856 18.0846C134.304 17.8996 133.778 17.7424 133.282 17.6129C132.784 17.4834 132.379 17.3354 132.065 17.1689C131.753 17.0024 131.596 16.7804 131.596 16.5029C131.596 16.2439 131.716 16.0497 131.955 15.9202C132.194 15.7722 132.553 15.6983 133.032 15.6983C133.53 15.6983 134.036 15.8 134.552 16.0035C135.086 16.2069 135.565 16.5585 135.989 17.058L138.393 14.6161C137.785 13.8391 136.993 13.2563 136.017 12.8679C135.059 12.461 134.009 12.2574 132.867 12.2574C131.78 12.2574 130.832 12.4424 130.021 12.8124C129.21 13.1824 128.584 13.6911 128.142 14.3385C127.7 14.9675 127.479 15.7168 127.479 16.5862C127.479 17.4002 127.636 18.0754 127.948 18.6119C128.261 19.1298 128.667 19.5368 129.164 19.8328C129.661 20.1288 130.187 20.36 130.739 20.5265C131.292 20.693 131.817 20.8502 132.314 20.9983C132.811 21.1278 133.217 21.285 133.53 21.47C133.862 21.6365 134.027 21.8862 134.027 22.2191C134.027 22.4781 133.889 22.6816 133.613 22.8296C133.355 22.9776 132.978 23.0516 132.48 23.0516C131.761 23.0516 131.098 22.9221 130.491 22.6631C129.883 22.3857 129.357 22.0064 128.916 21.5254L126.512 23.9673C126.973 24.4668 127.525 24.9108 128.17 25.2992C128.833 25.6692 129.542 25.9559 130.297 26.1594Z" fill="#007DFC"/>
<path d="M145.826 26.4369C144.592 26.4369 143.496 26.1872 142.538 25.6877C141.598 25.1697 140.862 24.4667 140.328 23.5788C139.793 22.6724 139.526 21.6365 139.526 20.471V12.6459H143.754V20.4155C143.754 20.8779 143.827 21.2757 143.975 21.6086C144.14 21.9417 144.38 22.2007 144.693 22.3856C145.007 22.5706 145.384 22.6631 145.826 22.6631C146.452 22.6631 146.949 22.4689 147.318 22.0804C147.687 21.6734 147.87 21.1185 147.87 20.4155V12.6459H152.098V20.4432C152.098 21.6272 151.831 22.6724 151.296 23.5788C150.762 24.4667 150.026 25.1697 149.086 25.6877C148.147 26.1872 147.06 26.4369 145.826 26.4369Z" fill="#007DFC"/>
<path d="M158.427 12.646H154.199V26.1317H158.427V18.2511C158.427 17.7887 158.519 17.4002 158.703 17.0857C158.906 16.7712 159.174 16.5307 159.505 16.3643C159.837 16.1792 160.214 16.0867 160.637 16.0867C161.246 16.0867 161.752 16.281 162.157 16.6695C162.581 17.0394 162.793 17.5667 162.793 18.2511V26.1317H167.02V18.2511C167.02 17.7887 167.113 17.4002 167.297 17.0857C167.5 16.7712 167.766 16.5307 168.098 16.3643C168.429 16.1792 168.807 16.0867 169.231 16.0867C169.839 16.0867 170.345 16.281 170.75 16.6695C171.174 17.0394 171.386 17.5667 171.386 18.2511V26.1317H175.614V17.7794C175.614 16.651 175.374 15.689 174.895 14.8936C174.434 14.0796 173.799 13.4599 172.989 13.0345C172.197 12.5904 171.285 12.3684 170.253 12.3684C169.203 12.3684 168.254 12.5997 167.407 13.0622C166.857 13.3568 166.376 13.7371 165.964 14.2029C165.579 13.7156 165.112 13.3169 164.561 13.0066C163.825 12.5812 162.986 12.3684 162.047 12.3684C161.052 12.3684 160.159 12.5812 159.367 13.0066C159.022 13.1836 158.709 13.3957 158.427 13.6427V12.646Z" fill="#007DFC"/>
</g>
<defs>
<clipPath id="clip0_11_11">
<rect width="176" height="35" fill="white"/>
</clipPath>
</defs>
</svg>
